<mxfile host="app.diagrams.net" modified="2024-02-28T02:39:38.113Z" agent="Mozilla/5.0 (Windows NT 10.0; Win64; x64) AppleWebKit/537.36 (KHTML, like Gecko) Chrome/121.0.0.0 Safari/537.36" etag="vKWbgoOPWk2O7mvSiuYU" version="22.1.18" type="github">
  <diagram name="第 1 页" id="Mi-UqBPwYrZBwcUrvSGw">
    <mxGraphModel dx="1562" dy="938" grid="1" gridSize="10" guides="1" tooltips="1" connect="1" arrows="1" fold="1" page="1" pageScale="1" pageWidth="827" pageHeight="1169" math="0" shadow="0">
      <root>
        <mxCell id="0" />
        <mxCell id="1" parent="0" />
        <mxCell id="JaerfKcbQuGFEnuojId6-1" value="第三方单位" style="rounded=0;whiteSpace=wrap;html=1;" vertex="1" parent="1">
          <mxGeometry x="110" y="80" width="120" height="60" as="geometry" />
        </mxCell>
        <mxCell id="JaerfKcbQuGFEnuojId6-4" value="" style="endArrow=none;html=1;rounded=0;" edge="1" parent="1">
          <mxGeometry width="50" height="50" relative="1" as="geometry">
            <mxPoint x="400" y="1161.5999755859375" as="sourcePoint" />
            <mxPoint x="400" as="targetPoint" />
          </mxGeometry>
        </mxCell>
        <mxCell id="JaerfKcbQuGFEnuojId6-5" value="第三方单位" style="rounded=0;whiteSpace=wrap;html=1;" vertex="1" parent="1">
          <mxGeometry x="550" y="80" width="120" height="60" as="geometry" />
        </mxCell>
        <mxCell id="JaerfKcbQuGFEnuojId6-6" value="&lt;font style=&quot;font-size: 16px;&quot;&gt;企业端&lt;/font&gt;" style="text;html=1;align=center;verticalAlign=middle;resizable=0;points=[];autosize=1;strokeColor=none;fillColor=none;" vertex="1" parent="1">
          <mxGeometry x="135" y="18" width="70" height="30" as="geometry" />
        </mxCell>
        <mxCell id="JaerfKcbQuGFEnuojId6-7" value="&lt;font style=&quot;font-size: 16px;&quot;&gt;园区端&lt;/font&gt;" style="text;html=1;align=center;verticalAlign=middle;resizable=0;points=[];autosize=1;strokeColor=none;fillColor=none;" vertex="1" parent="1">
          <mxGeometry x="575" y="18" width="70" height="30" as="geometry" />
        </mxCell>
        <mxCell id="JaerfKcbQuGFEnuojId6-9" style="edgeStyle=orthogonalEdgeStyle;rounded=0;orthogonalLoop=1;jettySize=auto;html=1;exitX=0.5;exitY=0;exitDx=0;exitDy=0;" edge="1" parent="1" source="JaerfKcbQuGFEnuojId6-8" target="JaerfKcbQuGFEnuojId6-1">
          <mxGeometry relative="1" as="geometry" />
        </mxCell>
        <mxCell id="JaerfKcbQuGFEnuojId6-8" value="第三方人员&lt;br&gt;（挂在第三方单位下）" style="rounded=0;whiteSpace=wrap;html=1;" vertex="1" parent="1">
          <mxGeometry x="110" y="200" width="120" height="60" as="geometry" />
        </mxCell>
        <mxCell id="JaerfKcbQuGFEnuojId6-11" value="" style="edgeStyle=orthogonalEdgeStyle;rounded=0;orthogonalLoop=1;jettySize=auto;html=1;" edge="1" parent="1" source="JaerfKcbQuGFEnuojId6-10" target="JaerfKcbQuGFEnuojId6-5">
          <mxGeometry relative="1" as="geometry" />
        </mxCell>
        <mxCell id="JaerfKcbQuGFEnuojId6-10" value="第三方人员&lt;br&gt;（挂在第三方单位下）" style="rounded=0;whiteSpace=wrap;html=1;" vertex="1" parent="1">
          <mxGeometry x="550" y="200" width="120" height="60" as="geometry" />
        </mxCell>
        <mxCell id="JaerfKcbQuGFEnuojId6-14" style="edgeStyle=orthogonalEdgeStyle;rounded=0;orthogonalLoop=1;jettySize=auto;html=1;exitX=0;exitY=0.5;exitDx=0;exitDy=0;entryX=0;entryY=0.5;entryDx=0;entryDy=0;" edge="1" parent="1" source="JaerfKcbQuGFEnuojId6-12" target="JaerfKcbQuGFEnuojId6-1">
          <mxGeometry relative="1" as="geometry" />
        </mxCell>
        <mxCell id="JaerfKcbQuGFEnuojId6-12" value="服务记录&lt;br&gt;（企业只能选择自己创建的第三方单位，也只能选择当前第三方单位下的第三方人员）" style="rounded=0;whiteSpace=wrap;html=1;" vertex="1" parent="1">
          <mxGeometry x="65" y="340" width="210" height="90" as="geometry" />
        </mxCell>
        <mxCell id="JaerfKcbQuGFEnuojId6-16" style="edgeStyle=orthogonalEdgeStyle;rounded=0;orthogonalLoop=1;jettySize=auto;html=1;entryX=1;entryY=0.5;entryDx=0;entryDy=0;exitX=1;exitY=0.5;exitDx=0;exitDy=0;" edge="1" parent="1" source="JaerfKcbQuGFEnuojId6-15" target="JaerfKcbQuGFEnuojId6-5">
          <mxGeometry relative="1" as="geometry" />
        </mxCell>
        <mxCell id="JaerfKcbQuGFEnuojId6-15" value="服务记录&lt;br&gt;（园区只能选择自己创建的第三方单位，也只能选择当前第三方单位下的第三方人员）" style="rounded=0;whiteSpace=wrap;html=1;" vertex="1" parent="1">
          <mxGeometry x="505" y="340" width="210" height="90" as="geometry" />
        </mxCell>
        <mxCell id="JaerfKcbQuGFEnuojId6-18" style="edgeStyle=orthogonalEdgeStyle;rounded=0;orthogonalLoop=1;jettySize=auto;html=1;entryX=1;entryY=0.5;entryDx=0;entryDy=0;exitX=1;exitY=0.5;exitDx=0;exitDy=0;" edge="1" parent="1" source="JaerfKcbQuGFEnuojId6-17" target="JaerfKcbQuGFEnuojId6-1">
          <mxGeometry relative="1" as="geometry" />
        </mxCell>
        <mxCell id="JaerfKcbQuGFEnuojId6-17" value="服务记录&lt;br&gt;（企业只能选择自己创建的第三方单位，也只能选择当前第三方单位下的第三方人员）" style="rounded=0;whiteSpace=wrap;html=1;" vertex="1" parent="1">
          <mxGeometry x="65" y="510" width="210" height="90" as="geometry" />
        </mxCell>
      </root>
    </mxGraphModel>
  </diagram>
</mxfile>
